<svg xmlns="http://www.w3.org/2000/svg" xmlns:xlink="http://www.w3.org/1999/xlink" width="191" height="41" viewBox="0 0 191 41">
    <defs>
        <path id="mvfhz9a2va" d="M0 0L15.3 0 15.3 17.8 0 17.8z"/>
        <path id="t0etjtpzpc" d="M0 0L6.1 0 6.1 7.6 0 7.6z"/>
        <path id="tef2ipjk6e" d="M0 0L5 0 5 7.6 0 7.6z"/>
    </defs>
    <g fill="none" fill-rule="evenodd">
        <g>
            <g>
                <g>
                    <path fill="#03C75A" d="M25.7.4L19 17.5h5.7l.8-2.3h6.4l.8 2.3h5.8L31.8.4h-6.1zm3 5.4l1.9 5.4h-3.8l1.9-5.4zM56.8.4L56.8 17.5 70.4 17.5 70.4 13.3 62.3 13.3 62.3 11 70.1 11 70.1 6.9 62.3 6.9 62.3 4.599 70.2 4.599 70.2.4zM49.3.4L45.299 11.699 41.3.4 35.6.4 42.3 17.5 48.299 17.5 55.1.4zM11.7.4L11.7 9.6 5.3.4 0 .4 0 17.5 5.5 17.5 5.5 8.4 11.9 17.5 17.2 17.5 17.2.4z" transform="translate(-320 -20) translate(320 20) translate(0 5)"/>
                    <g>
                        <path fill="#03C75A" d="M51.9 8.4H49V4.8h2.9c1 0 1.8.8 1.8 1.8s-.8 1.8-1.8 1.8zm4.2 3c2-.8 3-2.6 3-4.9 0-2.2-.8-3.8-2.3-4.8C55.4.8 53.5.3 50.9.3h-7.2v17.1h5.4v-4.8H51l3.3 4.8H60l-4.3-5.9.4-.1zM103.4 9c0 2.5-1.8 4.4-4.2 4.4-2.3 0-4.2-2-4.2-4.5s1.8-4.4 4.1-4.4c2.4 0 4.3 2 4.3 4.5m-4.2-9C94 0 90 3.9 90 9c0 5 4 8.9 9.2 8.9 5.2 0 9.2-3.9 9.2-9 0-5-4-8.9-9.2-8.9" transform="translate(-320 -20) translate(320 20) translate(0 5) translate(29.4)"/>
                        <g transform="translate(-320 -20) translate(320 20) translate(0 5) translate(29.4) translate(145.4)">
                            <mask id="wt8l9c16sb" fill="#fff">
                                <use xlink:href="#mvfhz9a2va"/>
                            </mask>
                            <path fill="#03C75A" d="M8.7 6.7c-2.4-.6-2.9-.9-2.9-1.5s.6-1 1.6-1c1.5 0 3.2.6 4.7 1.7l.1.1 2.5-3.6v-.1C12.8.7 10.4 0 7.6 0 3.6 0 .8 2.3.8 5.6c0 3.7 3.1 4.7 6.6 5.5 2.4.5 2.8.9 2.8 1.5 0 .7-.7 1-1.8 1-1.9 0-3.8-.7-5.5-2l-.1-.1L0 14.8l.1.1c2.1 1.9 5 2.9 8.1 2.9 4.4 0 7.1-2.2 7.1-5.7-.1-3.3-2.7-4.5-6.6-5.4" mask="url(#wt8l9c16sb)"/>
                        </g>
                        <path fill="#03C75A" d="M118.8 8.4h-2.9V4.8h2.9c1 0 1.8.8 1.8 1.8s-.8 1.8-1.8 1.8zm4.2 3c2-.8 3-2.6 3-4.9 0-2.2-.8-3.8-2.3-4.8-1.4-.9-3.3-1.4-5.9-1.4h-7.2v17.1h5.4v-4.8h1.9l3.3 4.8h5.7l-4.3-5.9.4-.1zM144.9.4L139.4.4 135.4 6.5 134.001 6.5 134.001.4 128.7.4 128.7 17.5 134.001 17.5 134.001 10.9 135.501 10.9 140.1 17.5 145.6 17.5 139.501 8.7zM75.4.4L72.9 9.6 70.1.4 64.9.4 70.6 17.5 74.501 17.5 77.4 8.4 80.3 17.5 84.2 17.5 89.8.4 84.6.4 81.8 9.6 79.4.4z" transform="translate(-320 -20) translate(320 20) translate(0 5) translate(29.4)"/>
                        <path fill="#989C9E" d="M6.2 34.5L5 34.5 1.5 29.5 1.5 34.5 0 34.5 0 27 1.5 27 4.8 31.7 4.8 27 6.3 27 6.3 34.5zM9.8 31.4h1.8l-.9-2.5-.9 2.5zm1.7-4.4l2.9 7.5h-1.6l-.7-1.8H9.3l-.7 1.8H7.1L10 27h1.5zM16.8 34.5L14 27 15.6 27 17.5 32.399 19.4 27 21.1 27 18.3 34.5zM27.1 27L27.1 28.399 23.6 28.399 23.6 30 26.8 30 26.8 31.3 23.6 31.3 23.6 33.1 27.1 33.1 27.1 34.5 22 34.5 22 27zM29.8 30.4h1.4c.8 0 1.2-.4 1.2-1s-.4-1-1.2-1h-1.4v2zm0 1.3v2.8h-1.5V27h3.1c1.6 0 2.6.8 2.6 2.4 0 1.2-.7 1.9-1.7 2.2l2 2.9h-1.8l-1.9-2.8h-.8zM40.8 26.9c1.8 0 2.9 1 3.1 2.5h-1.5c-.3-.7-.7-1.1-1.6-1.1-1.2 0-1.9 1-1.9 2.5 0 1.4.7 2.5 1.9 2.5.9 0 1.3-.5 1.6-1.2h1.5c-.3 1.5-1.4 2.5-3.1 2.5-2 0-3.5-1.6-3.5-3.9.1-2.2 1.5-3.8 3.5-3.8M45 27L46.6 27 46.6 33.1 50.1 33.1 50.1 34.5 45.1 34.5 45.1 27zM54 28.3c-1.2 0-1.9 1-1.9 2.5s.8 2.5 1.9 2.5c1.2 0 2-1 2-2.5s-.8-2.5-2-2.5m0 6.3c-2.1 0-3.5-1.6-3.5-3.9 0-2.2 1.4-3.9 3.5-3.9s3.5 1.6 3.5 3.9c.1 2.3-1.4 3.9-3.5 3.9" transform="translate(-320 -20) translate(320 20) translate(0 5) translate(29.4)"/>
                        <g transform="translate(-320 -20) translate(320 20) translate(0 5) translate(29.4) translate(58.6 27)">
                            <mask id="vqivm5t5md" fill="#fff">
                                <use xlink:href="#t0etjtpzpc"/>
                            </mask>
                            <path fill="#989C9E" d="M0 4.5V0h1.5v4.3c0 1.3.6 1.9 1.5 1.9 1 0 1.5-.6 1.5-1.9V0h1.6v4.5c0 2.1-1.2 3.1-3.1 3.1-1.8 0-3-1-3-3.1" mask="url(#vqivm5t5md)"/>
                        </g>
                        <path fill="#989C9E" d="M68.7 33.1c1.4 0 2.2-.9 2.2-2.4s-.8-2.4-2.2-2.4h-1V33h1v.1zM66.1 27h2.6c2.3 0 3.7 1.5 3.7 3.7 0 2.3-1.4 3.7-3.7 3.7h-2.6V27zM79 28.4h-1.4v2.2H79c.8 0 1.2-.5 1.2-1.1 0-.7-.4-1.1-1.2-1.1zm-1.4 3.5v2.6h-1.5V27h3c1.6 0 2.6.9 2.6 2.4 0 1.6-1 2.4-2.6 2.4h-1.5v.1zM82.8 27L84.4 27 84.4 33.1 87.9 33.1 87.9 34.5 82.9 34.5 82.9 27zM91.2 31.4H93l-.9-2.5-.9 2.5zm1.7-4.4l2.9 7.5h-1.6l-.7-1.8h-2.8l-.7 1.8h-1.6l2.9-7.5h1.6zM95.5 27L101.899 27 101.899 28.399 99.5 28.399 99.5 34.5 97.899 34.5 97.899 28.399 95.5 28.399z" transform="translate(-320 -20) translate(320 20) translate(0 5) translate(29.4)"/>
                        <g transform="translate(-320 -20) translate(320 20) translate(0 5) translate(29.4) translate(102.9 27)">
                            <mask id="n32sbpvxkf" fill="#fff">
                                <use xlink:href="#tef2ipjk6e"/>
                            </mask>
                            <path fill="#989C9E" d="M0 7.5L0 0 5 0 5 1.399 1.601 1.399 1.601 3.3 4.8 3.3 4.8 4.7 1.601 4.7 1.601 7.6 0 7.6z" mask="url(#n32sbpvxkf)"/>
                        </g>
                        <path fill="#989C9E" d="M112.1 28.3c-1.2 0-1.9 1-1.9 2.5s.8 2.5 1.9 2.5c1.2 0 2-1 2-2.5s-.8-2.5-2-2.5m0 6.3c-2.1 0-3.5-1.6-3.5-3.9 0-2.2 1.4-3.9 3.5-3.9s3.5 1.6 3.5 3.9-1.4 3.9-3.5 3.9M118.3 30.4h1.4c.8 0 1.2-.4 1.2-1s-.4-1-1.2-1h-1.4v2zm0 1.3v2.8h-1.5V27h3.1c1.6 0 2.6.8 2.6 2.4 0 1.2-.7 1.9-1.7 2.2l2 2.9H121l-1.9-2.8h-.8zM126.9 34.5L125.001 29.6 125.001 34.5 123.501 34.5 123.501 27 125.4 27 127.4 32.3 129.4 27 131.2 27 131.2 34.5 129.7 34.5 129.7 29.6 127.9 34.5z" transform="translate(-320 -20) translate(320 20) translate(0 5) translate(29.4)"/>
                    </g>
                </g>
            </g>
        </g>
    </g>
</svg>
